<svg width="50" height="93" viewBox="0 0 50 93" fill="none" xmlns="http://www.w3.org/2000/svg">
<path d="M18.654 62.246L18.638 62.146C18.637 62.144 18.634 62.144 18.634 62.14C18.633 62.138 18.635 62.136 18.634 62.134L18.601 62.017C18.6 62.017 18.599 62.017 18.599 62.016C18.599 62.015 18.599 62.014 18.599 62.013L18.565 61.913L18.532 61.812C18.531 61.807 18.525 61.805 18.523 61.801C18.521 61.795 18.523 61.791 18.52 61.786L18.456 61.689L18.391 61.576C18.39 61.572 18.386 61.572 18.384 61.57C18.383 61.568 18.384 61.564 18.382 61.562L18.318 61.482L18.255 61.386C18.252 61.38 18.245 61.38 18.241 61.376C18.236 61.371 18.237 61.364 18.232 61.36L18.149 61.294L18.065 61.228C18.063 61.226 18.06 61.228 18.058 61.226C18.056 61.224 18.056 61.221 18.053 61.22L17.97 61.17C17.97 61.169 17.969 61.17 17.969 61.169L8.499 55.7L8.403 55.636C8.398 55.632 8.391 55.636 8.386 55.632C8.381 55.63 8.378 55.624 8.373 55.622L8.256 55.589C8.254 55.589 8.253 55.59 8.251 55.589C8.25 55.589 8.249 55.587 8.247 55.587L8.164 55.57C8.16 55.569 8.158 55.572 8.153 55.572C8.15 55.571 8.147 55.567 8.143 55.567H8.06C8.057 55.567 8.054 55.571 8.05 55.572C8.046 55.572 8.043 55.569 8.04 55.57L7.956 55.587C7.953 55.587 7.952 55.591 7.947 55.593C7.944 55.593 7.941 55.591 7.938 55.593L7.854 55.626C7.85 55.628 7.849 55.633 7.844 55.636C7.84 55.638 7.834 55.636 7.83 55.64L7.763 55.69C7.759 55.693 7.759 55.699 7.756 55.704C7.752 55.707 7.746 55.707 7.742 55.711L7.692 55.777C7.691 55.779 7.692 55.782 7.691 55.784C7.69 55.785 7.687 55.785 7.686 55.787L7.636 55.871C7.635 55.873 7.636 55.877 7.636 55.88C7.634 55.883 7.63 55.883 7.629 55.887L7.596 55.969C7.594 55.975 7.597 55.979 7.596 55.983C7.595 55.988 7.59 55.99 7.589 55.995L7.573 56.111C7.573 56.114 7.575 56.116 7.574 56.119C7.573 56.122 7.571 56.124 7.571 56.127V56.228V64.499V64.633C7.571 64.635 7.573 64.636 7.574 64.639C7.574 64.641 7.572 64.642 7.572 64.645L7.589 64.794C7.589 64.798 7.593 64.799 7.594 64.803C7.594 64.807 7.592 64.811 7.593 64.813L7.643 64.981L7.693 65.147C7.694 65.15 7.696 65.151 7.697 65.153C7.697 65.155 7.697 65.158 7.697 65.16L7.763 65.309C7.764 65.311 7.767 65.312 7.767 65.314C7.767 65.315 7.767 65.317 7.767 65.318L7.85 65.468C7.851 65.469 7.852 65.469 7.853 65.47C7.854 65.471 7.853 65.473 7.854 65.475L7.955 65.625L8.037 65.756C8.039 65.76 8.044 65.758 8.046 65.761C8.049 65.766 8.048 65.772 8.052 65.776L8.169 65.892L8.286 66.008C8.288 66.011 8.291 66.01 8.293 66.012C8.295 66.014 8.294 66.018 8.297 66.019L8.429 66.118L8.526 66.199C8.529 66.202 8.533 66.2 8.536 66.202C8.538 66.204 8.538 66.208 8.541 66.21L17.692 71.477L17.79 71.542C17.796 71.546 17.803 71.546 17.81 71.548C17.814 71.55 17.815 71.554 17.82 71.556L17.937 71.589C17.94 71.591 17.943 71.591 17.947 71.591C17.948 71.591 17.948 71.592 17.949 71.592L18.049 71.609C18.054 71.611 18.061 71.611 18.066 71.611H18.15C18.155 71.611 18.161 71.611 18.167 71.609L18.267 71.592C18.269 71.592 18.27 71.59 18.271 71.589C18.277 71.587 18.283 71.588 18.289 71.585L18.372 71.552C18.376 71.552 18.377 71.546 18.38 71.544C18.385 71.542 18.391 71.542 18.396 71.539L18.463 71.489C18.468 71.485 18.468 71.477 18.472 71.473C18.476 71.469 18.481 71.471 18.485 71.467L18.535 71.4C18.536 71.399 18.535 71.395 18.536 71.393C18.537 71.392 18.54 71.393 18.54 71.391L18.59 71.307C18.591 71.305 18.59 71.302 18.591 71.3C18.592 71.297 18.596 71.295 18.598 71.291L18.631 71.209C18.632 71.204 18.629 71.2 18.631 71.196C18.631 71.191 18.637 71.189 18.638 71.183L18.654 71.067C18.654 71.064 18.652 71.062 18.652 71.06C18.652 71.056 18.655 71.054 18.655 71.051V70.935V62.364V62.263C18.655 62.26 18.651 62.259 18.651 62.255C18.651 62.251 18.655 62.25 18.654 62.246ZM8.655 66.029L8.562 65.951C8.562 65.949 8.561 65.951 8.56 65.949C8.56 65.949 8.56 65.947 8.559 65.947L8.432 65.851L8.32 65.74L8.212 65.632L8.135 65.51C8.135 65.509 8.135 65.51 8.134 65.509C8.134 65.508 8.134 65.508 8.134 65.507L8.036 65.36L7.956 65.217L7.894 65.078L7.847 64.918L7.8 64.761L7.785 64.627V64.499V56.228V56.133L7.799 56.038L7.824 55.975L7.866 55.904L7.904 55.853L7.948 55.821L8.008 55.797L8.072 55.784H8.134L8.202 55.798L8.299 55.826L8.385 55.883C8.386 55.884 8.387 55.884 8.388 55.885C8.389 55.885 8.389 55.887 8.389 55.887L17.861 61.357C17.861 61.357 17.861 61.357 17.861 61.358L17.936 61.402L18.014 61.464L18.085 61.521L18.142 61.607C18.143 61.608 18.145 61.608 18.146 61.609C18.147 61.611 18.146 61.614 18.148 61.614L18.21 61.692L18.272 61.801C18.272 61.802 18.274 61.801 18.275 61.803C18.276 61.803 18.275 61.805 18.276 61.807L18.335 61.895L18.364 61.981L18.397 62.081L18.428 62.19L18.442 62.273V62.365V70.936V71.046L18.428 71.141L18.403 71.204L18.361 71.275L18.323 71.326L18.279 71.359L18.221 71.382L18.141 71.395H18.074L17.99 71.38L17.894 71.353L17.808 71.296C17.808 71.295 17.806 71.296 17.805 71.295C17.803 71.294 17.803 71.294 17.803 71.292L8.655 66.029Z" fill="white"/>
<path d="M12.374 49.616C12.373 49.623 12.378 49.627 12.379 49.633C12.379 49.639 12.375 49.645 12.376 49.651L12.408 49.78L12.44 49.976C12.442 49.984 12.449 49.989 12.452 49.996C12.454 50.002 12.451 50.009 12.455 50.014L12.555 50.181C12.556 50.184 12.561 50.183 12.562 50.185C12.564 50.189 12.563 50.193 12.565 50.196L12.666 50.312C12.668 50.314 12.671 50.314 12.673 50.316C12.675 50.318 12.675 50.321 12.676 50.323L12.826 50.457C12.829 50.459 12.834 50.458 12.838 50.461C12.841 50.463 12.841 50.467 12.845 50.47L12.961 50.537C12.965 50.539 12.969 50.537 12.973 50.539C12.975 50.541 12.976 50.543 12.978 50.543L13.161 50.611C13.17 50.613 13.177 50.614 13.186 50.615C13.187 50.615 13.187 50.616 13.189 50.616L13.389 50.633C13.392 50.634 13.395 50.635 13.398 50.635C13.401 50.635 13.404 50.634 13.407 50.633L13.617 50.617H13.665C13.689 50.617 13.711 50.605 13.731 50.59L13.866 50.545C13.868 50.544 13.868 50.543 13.87 50.541C13.873 50.539 13.877 50.541 13.88 50.539L14.014 50.473L14.047 50.455C14.052 50.453 14.053 50.446 14.058 50.442C14.064 50.438 14.071 50.44 14.075 50.435L14.106 50.404L14.198 50.328L14.263 50.279C14.267 50.276 14.267 50.271 14.27 50.267C14.272 50.265 14.277 50.267 14.279 50.263L14.412 50.114C14.416 50.109 14.414 50.103 14.417 50.099C14.422 50.092 14.43 50.088 14.433 50.079L14.499 49.895C14.5 49.893 14.499 49.891 14.499 49.889C14.5 49.887 14.502 49.886 14.503 49.885L14.536 49.75C14.536 49.747 14.534 49.745 14.535 49.742C14.535 49.738 14.538 49.737 14.539 49.733L14.556 49.533C14.556 49.527 14.551 49.523 14.551 49.517C14.55 49.511 14.555 49.507 14.553 49.501L14.519 49.351L14.487 49.171C14.486 49.165 14.48 49.162 14.478 49.156C14.476 49.151 14.479 49.144 14.476 49.139L14.375 48.955C14.373 48.949 14.366 48.949 14.363 48.945C14.36 48.94 14.361 48.934 14.357 48.929L14.257 48.829C14.256 48.828 14.255 48.829 14.254 48.827C14.253 48.827 14.253 48.825 14.252 48.825L14.102 48.691C14.099 48.688 14.095 48.69 14.092 48.688C14.089 48.684 14.089 48.68 14.085 48.678L13.969 48.612C13.966 48.61 13.962 48.612 13.959 48.61C13.956 48.608 13.955 48.605 13.952 48.604L13.768 48.537C13.765 48.536 13.761 48.539 13.757 48.538C13.754 48.536 13.753 48.533 13.748 48.532L13.548 48.499C13.542 48.498 13.537 48.503 13.531 48.503C13.525 48.503 13.52 48.498 13.514 48.499L13.306 48.53H13.264C13.259 48.53 13.255 48.536 13.249 48.537C13.244 48.538 13.239 48.534 13.233 48.536L13.066 48.586C13.061 48.587 13.06 48.593 13.056 48.595C13.052 48.597 13.047 48.594 13.043 48.597L12.876 48.697C12.874 48.699 12.874 48.701 12.873 48.701C12.872 48.703 12.869 48.701 12.867 48.703L12.667 48.853C12.662 48.856 12.663 48.862 12.659 48.865C12.656 48.869 12.65 48.868 12.647 48.872L12.513 49.039C12.509 49.043 12.511 49.051 12.508 49.057C12.505 49.061 12.498 49.063 12.496 49.07L12.43 49.253C12.429 49.255 12.43 49.257 12.43 49.257C12.429 49.259 12.427 49.259 12.427 49.261L12.394 49.378C12.393 49.382 12.396 49.385 12.395 49.389C12.395 49.393 12.391 49.396 12.39 49.399L12.374 49.616ZM12.991 48.879L13.14 48.789L13.279 48.748H13.314C13.319 48.748 13.324 48.747 13.33 48.746L13.53 48.715L13.704 48.744L13.869 48.805L13.969 48.862L14.106 48.983L14.195 49.073L14.279 49.227L14.309 49.393C14.309 49.395 14.31 49.395 14.311 49.396C14.311 49.397 14.31 49.397 14.31 49.399L14.34 49.532L14.325 49.708L14.295 49.827L14.237 49.987L14.125 50.112L14.066 50.157C14.065 50.157 14.065 50.159 14.064 50.159C14.064 50.161 14.062 50.159 14.061 50.161L13.962 50.243C13.96 50.245 13.961 50.247 13.96 50.248C13.958 50.25 13.956 50.249 13.955 50.25L13.933 50.272L13.916 50.28L13.791 50.342L13.646 50.391C13.641 50.393 13.639 50.399 13.633 50.402H13.613C13.611 50.402 13.611 50.403 13.609 50.403C13.608 50.403 13.607 50.403 13.605 50.403L13.397 50.419L13.22 50.403L13.058 50.344L12.958 50.287L12.822 50.167L12.731 50.063L12.647 49.921L12.617 49.74C12.616 49.739 12.615 49.738 12.614 49.736C12.614 49.734 12.615 49.734 12.615 49.732L12.586 49.615L12.601 49.427L12.63 49.323L12.69 49.159L12.804 49.016L12.991 48.879Z" fill="white"/>
<path d="M21.73 53.25L21.764 53.4C21.765 53.407 21.772 53.411 21.775 53.418C21.777 53.422 21.775 53.428 21.777 53.434L21.86 53.567L21.977 53.751C21.979 53.756 21.986 53.755 21.989 53.758C21.992 53.763 21.992 53.771 21.998 53.776L22.115 53.876C22.121 53.882 22.129 53.881 22.136 53.885C22.142 53.888 22.144 53.895 22.151 53.897L22.301 53.948C22.304 53.949 22.308 53.949 22.313 53.949C22.314 53.95 22.315 53.951 22.315 53.951L22.499 53.985C22.505 53.985 22.512 53.986 22.518 53.986C22.525 53.986 22.531 53.985 22.538 53.985L22.721 53.951C22.723 53.951 22.724 53.949 22.725 53.948C22.73 53.947 22.736 53.947 22.741 53.945L22.908 53.878C22.909 53.878 22.91 53.876 22.911 53.876C22.913 53.874 22.917 53.875 22.919 53.874L23.103 53.772C23.108 53.77 23.108 53.764 23.113 53.76C23.117 53.758 23.124 53.758 23.128 53.754L23.261 53.62C23.265 53.615 23.264 53.608 23.268 53.603C23.271 53.599 23.277 53.6 23.278 53.597L23.361 53.447C23.362 53.446 23.361 53.445 23.362 53.445C23.362 53.443 23.362 53.443 23.363 53.443L23.446 53.275C23.45 53.267 23.446 53.259 23.447 53.252C23.449 53.242 23.457 53.237 23.457 53.229V53.063C23.457 53.057 23.453 53.055 23.453 53.05C23.452 53.046 23.456 53.043 23.455 53.039L23.421 52.889C23.42 52.881 23.412 52.877 23.409 52.87C23.406 52.863 23.408 52.855 23.404 52.849L23.325 52.74L23.296 52.68C23.296 52.678 23.293 52.678 23.292 52.676C23.292 52.675 23.292 52.673 23.292 52.671L23.208 52.537C23.205 52.532 23.198 52.532 23.195 52.528C23.192 52.523 23.193 52.516 23.187 52.512L23.071 52.411C23.065 52.406 23.057 52.408 23.051 52.404C23.045 52.401 23.042 52.393 23.035 52.391L22.885 52.341C22.881 52.339 22.877 52.343 22.872 52.341C22.867 52.341 22.865 52.336 22.861 52.335L22.677 52.318C22.674 52.318 22.671 52.321 22.667 52.321C22.664 52.321 22.661 52.317 22.657 52.318L22.49 52.335C22.485 52.336 22.483 52.341 22.477 52.343C22.473 52.343 22.469 52.339 22.463 52.341L22.28 52.408C22.276 52.409 22.275 52.413 22.272 52.415C22.268 52.417 22.265 52.415 22.261 52.417L22.094 52.517C22.091 52.519 22.091 52.523 22.088 52.526C22.085 52.529 22.081 52.527 22.078 52.529L21.928 52.663C21.924 52.667 21.924 52.674 21.92 52.68C21.916 52.685 21.909 52.686 21.906 52.692L21.823 52.841C21.822 52.844 21.823 52.846 21.822 52.848C21.822 52.851 21.818 52.851 21.818 52.854L21.751 53.02C21.75 53.025 21.752 53.03 21.751 53.035C21.75 53.042 21.744 53.044 21.743 53.05L21.727 53.216C21.726 53.223 21.731 53.228 21.732 53.234C21.733 53.238 21.729 53.244 21.73 53.25ZM22.669 52.533L22.829 52.549L22.948 52.588L23.036 52.664L23.1 52.767L23.126 52.883L23.112 53.021L23.071 53.145L22.97 53.29L22.847 53.396L22.714 53.499L22.56 53.556L22.396 53.572H22.244L22.123 53.504L22.029 53.438L21.967 53.338L21.941 53.223L21.955 53.086L22.013 52.941L22.084 52.812L22.213 52.697L22.363 52.608L22.524 52.549L22.669 52.533ZM22.987 53.59L22.849 53.666L22.984 53.561C22.984 53.56 22.984 53.559 22.985 53.559C22.985 53.557 22.987 53.559 22.988 53.557L23.118 53.444L23.1 53.478L22.987 53.59Z" fill="white"/>
<path d="M19.762 56.018L19.796 56.168C19.797 56.175 19.804 56.179 19.807 56.186C19.809 56.191 19.807 56.197 19.809 56.202L19.892 56.335C19.892 56.337 19.894 56.337 19.895 56.337C19.896 56.339 19.895 56.341 19.896 56.342L20.029 56.526C20.031 56.529 20.036 56.528 20.039 56.531C20.042 56.535 20.041 56.541 20.045 56.544L20.162 56.645C20.168 56.651 20.177 56.649 20.183 56.653C20.189 56.656 20.191 56.663 20.198 56.665L20.347 56.716C20.351 56.718 20.355 56.718 20.359 56.718C20.36 56.718 20.36 56.72 20.362 56.72L20.545 56.753C20.551 56.754 20.558 56.755 20.565 56.755C20.572 56.755 20.578 56.754 20.585 56.753L20.752 56.72C20.754 56.719 20.754 56.718 20.755 56.718C20.759 56.716 20.763 56.716 20.768 56.715L20.952 56.648C20.955 56.647 20.956 56.643 20.959 56.642C20.964 56.64 20.969 56.64 20.974 56.636L21.124 56.536C21.126 56.534 21.126 56.532 21.128 56.53C21.13 56.528 21.133 56.529 21.135 56.528L21.285 56.393C21.289 56.389 21.289 56.383 21.293 56.378C21.295 56.375 21.301 56.377 21.303 56.373L21.403 56.223C21.404 56.219 21.403 56.216 21.404 56.213C21.406 56.209 21.411 56.207 21.412 56.203L21.479 56.036C21.481 56.031 21.478 56.027 21.479 56.021C21.481 56.016 21.486 56.013 21.487 56.007L21.504 55.839C21.504 55.833 21.499 55.829 21.499 55.822C21.499 55.817 21.503 55.811 21.502 55.805L21.469 55.655C21.467 55.649 21.461 55.646 21.459 55.639C21.457 55.633 21.459 55.627 21.456 55.621L21.373 55.488C21.371 55.484 21.366 55.483 21.363 55.48C21.361 55.476 21.362 55.471 21.359 55.468L21.317 55.425L21.241 55.304C21.238 55.298 21.231 55.298 21.228 55.294C21.224 55.29 21.225 55.282 21.22 55.278L21.104 55.178C21.099 55.174 21.092 55.175 21.086 55.172C21.08 55.168 21.078 55.162 21.071 55.158L20.938 55.109C20.934 55.107 20.93 55.109 20.926 55.109C20.923 55.107 20.921 55.103 20.917 55.103L20.717 55.07C20.71 55.068 20.705 55.074 20.698 55.074C20.692 55.074 20.686 55.069 20.678 55.07L20.511 55.103C20.508 55.105 20.507 55.107 20.504 55.109C20.501 55.109 20.499 55.107 20.496 55.108L20.312 55.174C20.309 55.176 20.308 55.18 20.305 55.181C20.301 55.183 20.297 55.181 20.294 55.183L20.127 55.284C20.123 55.286 20.123 55.292 20.12 55.295C20.116 55.297 20.11 55.297 20.107 55.3L19.973 55.434C19.97 55.436 19.971 55.442 19.969 55.444C19.966 55.448 19.962 55.448 19.959 55.45L19.859 55.6C19.857 55.604 19.859 55.608 19.857 55.612C19.856 55.616 19.851 55.616 19.849 55.62L19.783 55.787C19.781 55.792 19.784 55.797 19.783 55.802C19.782 55.808 19.776 55.81 19.775 55.816L19.759 55.983C19.758 55.99 19.763 55.994 19.764 56.001C19.766 56.006 19.761 56.012 19.762 56.018ZM20.703 55.285L20.872 55.314L20.979 55.353L21.069 55.431L21.133 55.535L21.159 55.656V55.773L21.104 55.913L21.017 56.059L20.903 56.159L20.753 56.249L20.587 56.31L20.428 56.338L20.288 56.323L20.165 56.282L20.061 56.205L20 56.104L19.975 55.989L19.989 55.853L20.046 55.711L20.134 55.58L20.251 55.462L20.397 55.374L20.563 55.314L20.703 55.285ZM20.547 56.533L20.636 56.515C20.637 56.515 20.638 56.514 20.64 56.513C20.645 56.512 20.649 56.513 20.654 56.511L20.837 56.445C20.84 56.443 20.84 56.44 20.843 56.439C20.847 56.437 20.852 56.438 20.856 56.435L21.023 56.335C21.026 56.333 21.026 56.329 21.029 56.327C21.032 56.325 21.036 56.327 21.039 56.323L21.141 56.235L21.138 56.239L21.004 56.358L20.871 56.448L20.707 56.507L20.568 56.535L20.547 56.533Z" fill="white"/>
<path d="M11.148 64.699C11.141 64.687 11.135 64.677 11.124 64.668C11.12 64.664 11.12 64.659 11.115 64.656L10.481 64.29C10.481 64.289 10.481 64.289 10.48 64.289L9.94699 63.988C9.93799 63.984 9.92899 63.988 9.91999 63.985C9.91099 63.982 9.905 63.974 9.894 63.974C9.889 63.974 9.886 63.98 9.881 63.98C9.866 63.982 9.85599 63.988 9.84299 63.996C9.83099 64.004 9.821 64.01 9.813 64.02C9.81 64.024 9.80399 64.025 9.80199 64.029C9.79699 64.038 9.801 64.047 9.798 64.056C9.796 64.065 9.78799 64.072 9.78799 64.081V65.048C9.78799 65.054 9.79299 65.057 9.79399 65.062C9.79499 65.072 9.796 65.08 9.8 65.087C9.802 65.091 9.79999 65.097 9.80199 65.101C9.80399 65.105 9.809 65.103 9.812 65.107C9.818 65.117 9.824 65.123 9.833 65.13C9.837 65.132 9.837 65.138 9.842 65.142L11.009 65.808C11.026 65.818 11.044 65.822 11.062 65.822C11.098 65.822 11.125 65.802 11.145 65.775C11.147 65.771 11.153 65.773 11.155 65.769C11.161 65.759 11.157 65.75 11.159 65.742C11.161 65.732 11.17 65.726 11.17 65.717V65.115V64.749C11.17 64.744 11.165 64.74 11.164 64.736C11.161 64.722 11.155 64.711 11.148 64.699ZM10.955 64.931L10.535 64.688V64.567L10.955 64.811V64.931ZM10.321 64.687L10.001 64.868V64.264L10.321 64.445V64.687ZM10.428 64.872L10.955 65.178V65.532L10.111 65.05L10.428 64.872Z" fill="white"/>
<path d="M14.601 66.718C14.593 66.705 14.588 66.694 14.577 66.686C14.573 66.683 14.573 66.678 14.568 66.675L13.884 66.275C13.884 66.274 13.884 66.275 13.884 66.274C13.884 66.274 13.884 66.274 13.883 66.274L13.349 65.973C13.34 65.969 13.331 65.973 13.323 65.97C13.313 65.967 13.307 65.959 13.297 65.959C13.292 65.959 13.289 65.965 13.284 65.965C13.269 65.967 13.259 65.973 13.246 65.981C13.234 65.988 13.224 65.994 13.215 66.004C13.212 66.009 13.206 66.01 13.204 66.014C13.199 66.023 13.202 66.032 13.2 66.041C13.198 66.05 13.189 66.057 13.189 66.066V67.015C13.189 67.021 13.195 67.025 13.195 67.029C13.196 67.039 13.197 67.046 13.201 67.054C13.202 67.058 13.2 67.062 13.202 67.066C13.206 67.073 13.212 67.076 13.217 67.082C13.222 67.088 13.225 67.092 13.231 67.096C13.235 67.1 13.239 67.106 13.244 67.11L14.461 67.811C14.478 67.82 14.495 67.825 14.514 67.825C14.55 67.825 14.577 67.804 14.596 67.777C14.599 67.774 14.604 67.774 14.607 67.77C14.612 67.762 14.608 67.752 14.61 67.744C14.614 67.735 14.622 67.727 14.622 67.718V67.118V66.767C14.622 66.762 14.617 66.758 14.616 66.754C14.613 66.74 14.607 66.729 14.601 66.718ZM14.407 66.935L13.937 66.671V66.553L14.407 66.828V66.935ZM13.724 66.669L13.404 66.84V66.248L13.724 66.43V66.669ZM13.829 66.854L14.407 67.179V67.533L13.517 67.02L13.829 66.854Z" fill="white"/>
<path d="M0.743003 48.078C0.745003 48.092 0.748004 48.105 0.752004 48.117L1.786 51.519L1.848 51.787L1.895 52.042L1.964 52.337L2.01 52.62L2.061 52.906L2.092 53.174L2.144 53.486L2.175 53.772L2.191 54.058L2.208 54.373L2.241 54.674V54.977V80.24C2.241 80.338 2.294 80.427 2.379 80.472L3.013 80.824C3.053 80.845 3.097 80.857 3.141 80.857C3.186 80.857 3.23 80.845 3.27 80.824L3.771 80.547L22.451 91.317V91.897C22.451 91.992 22.501 92.08 22.583 92.127L23.217 92.494C23.259 92.517 23.304 92.529 23.35 92.529C23.396 92.529 23.443 92.517 23.484 92.494L49.564 77.436C49.646 77.388 49.698 77.3 49.698 77.205V12.906C49.698 12.81 49.646 12.722 49.564 12.675L48.93 12.308C48.889 12.284 48.843 12.272 48.796 12.272C48.766 12.272 48.734 12.277 48.705 12.288L47.587 12.696L29.488 2.247V1.233C29.488 1.137 29.436 1.048 29.352 1.001L28.736 0.650997C28.695 0.627997 28.65 0.616997 28.604 0.616997C28.574 0.616997 28.544 0.620997 28.515 0.631997L26.865 1.215L25.205 1.869L23.532 2.572L21.873 3.325L20.183 4.145L18.525 5.016L16.836 5.952L15.147 6.939L13.489 7.977L11.802 9.063L10.128 10.2L9.292 10.786C9.279 10.795 9.267 10.805 9.256 10.815L9.106 10.965L8.882 11.205C8.871 11.218 8.861 11.231 8.851 11.246L8.684 11.513C8.678 11.522 8.673 11.531 8.669 11.541L8.535 11.825C8.531 11.834 8.527 11.844 8.523 11.854L8.423 12.155L8.35 12.462C8.346 12.482 8.343 12.503 8.343 12.523V19.394L8.16 21.59L7.894 23.848L7.529 26.156L7.097 28.467L6.549 30.789L5.933 33.168L5.251 35.528L4.471 37.903L3.622 40.281L2.675 42.656L1.676 45.019L0.963003 46.544C0.959003 46.553 0.955003 46.563 0.952003 46.572L0.885004 46.772L0.802003 47.022C0.799003 47.033 0.796004 47.043 0.794004 47.054L0.745004 47.304C0.742004 47.315 0.740003 47.325 0.740003 47.336L0.724004 47.553L0.707004 47.788C0.706004 47.807 0.706003 47.826 0.709003 47.845L0.743003 48.078ZM2.021 45.167C2.021 45.166 2.021 45.166 2.021 45.165C2.021 45.164 2.022 45.164 2.022 45.164L3.022 42.795C3.022 42.795 3.022 42.795 3.023 42.794L3.973 40.41C3.973 40.409 3.973 40.409 3.973 40.408C3.973 40.407 3.974 40.407 3.974 40.407L4.825 38.022C4.825 38.021 4.825 38.021 4.825 38.02C4.825 38.019 4.826 38.02 4.826 38.019L5.609 35.634C5.609 35.634 5.609 35.634 5.609 35.633C5.609 35.632 5.61 35.631 5.61 35.631L6.294 33.263C6.294 33.263 6.294 33.263 6.294 33.262C6.294 33.262 6.294 33.262 6.295 33.261L6.912 30.877C6.912 30.876 6.912 30.876 6.912 30.875L7.463 28.54C7.463 28.54 7.46201 28.539 7.46201 28.538C7.46201 28.537 7.463 28.537 7.463 28.536L7.897 26.218C7.897 26.218 7.897 26.218 7.897 26.217C7.897 26.216 7.897 26.216 7.897 26.215L8.264 23.897C8.264 23.896 8.264 23.896 8.264 23.895C8.264 23.895 8.265 23.895 8.265 23.894L8.531 21.626C8.531 21.626 8.531 21.625 8.531 21.624L8.532 21.623L8.701 19.571L9.114 19.805L8.936 21.968L8.67 24.235L8.32 26.533L7.872 28.844L7.322 31.195L6.706 33.557L6.006 35.925L5.24 38.303L4.39 40.688L3.441 43.068L2.442 45.431L1.775 46.874L1.343 46.617L2.021 45.167ZM10.34 10.508L12.006 9.375L13.688 8.293L15.335 7.261L17.019 6.278L18.698 5.347L20.346 4.481L22.03 3.664L23.676 2.916L25.343 2.215L26.989 1.567L28.594 0.999997L28.968 1.212L27.534 1.733C27.533 1.733 27.533 1.734 27.533 1.734H27.532L25.882 2.368C25.881 2.368 25.881 2.369 25.88 2.369C25.879 2.369 25.879 2.369 25.878 2.369L24.228 3.069C24.228 3.069 24.227 3.069 24.227 3.07C24.227 3.07 24.226 3.07 24.225 3.07L22.558 3.82C22.558 3.82 22.558 3.821 22.557 3.821H22.556L20.889 4.638C20.888 4.638 20.888 4.638 20.888 4.638C20.888 4.639 20.887 4.638 20.887 4.638L19.2 5.524C19.2 5.524 19.2 5.525 19.199 5.525H19.198L17.531 6.442C17.531 6.442 17.531 6.442 17.53 6.443C17.53 6.443 17.53 6.443 17.529 6.443L15.844 7.427C15.844 7.427 15.844 7.428 15.843 7.428C15.843 7.428 15.843 7.428 15.842 7.428L14.174 8.462C14.174 8.462 14.174 8.463 14.173 8.463C14.173 8.463 14.173 8.463 14.172 8.463L12.505 9.564V9.565H12.504L10.835 10.7H10.834L10.057 11.244L9.641 10.997L10.34 10.508ZM48.787 12.656L49.178 12.882L47.745 13.389C47.744 13.389 47.744 13.389 47.743 13.39H47.742L46.091 14.04C46.091 14.04 46.091 14.04 46.09 14.04H46.089L44.438 14.741C44.438 14.741 44.438 14.741 44.437 14.742H44.436L42.768 15.492C42.768 15.492 42.768 15.493 42.767 15.493C42.766 15.493 42.766 15.493 42.766 15.493L41.098 16.31C41.097 16.31 41.097 16.311 41.097 16.311H41.096L39.411 17.178C39.41 17.178 39.41 17.179 39.41 17.179C39.409 17.18 39.408 17.179 39.408 17.179L37.74 18.113H37.738L36.055 19.1C36.054 19.1 36.054 19.101 36.053 19.101L34.385 20.135C34.384 20.135 34.385 20.135 34.384 20.136H34.383L32.715 21.22C32.715 21.22 32.715 21.22 32.715 21.221C32.715 21.221 32.714 21.221 32.713 21.221L31.046 22.355C31.045 22.355 31.045 22.356 31.045 22.356H31.044L30.281 22.901L29.852 22.664L30.535 22.163L32.2 21.031L33.862 19.95L35.545 18.917H35.546L37.213 17.933L38.877 17.002L40.557 16.137H40.558L42.222 15.321L43.887 14.571L45.555 13.871L47.199 13.224L47.599 13.09C47.599 13.09 47.599 13.09 47.599 13.089C47.6 13.089 47.6 13.089 47.601 13.089L48.787 12.656ZM49.325 77.144L23.458 92.078V67C23.458 66.999 23.457 66.998 23.457 66.996C23.457 66.996 23.458 66.996 23.458 66.994L23.441 66.678L23.424 66.366V66.067C23.424 66.063 23.422 66.062 23.421 66.059C23.421 66.055 23.423 66.053 23.423 66.05L23.374 65.737L23.357 65.444C23.357 65.442 23.355 65.44 23.354 65.438C23.354 65.436 23.355 65.434 23.355 65.432L23.306 65.135L23.272 64.837C23.272 64.836 23.271 64.836 23.271 64.834C23.271 64.833 23.272 64.832 23.272 64.83L23.222 64.547L23.172 64.264C23.172 64.262 23.171 64.262 23.17 64.26C23.17 64.258 23.171 64.258 23.171 64.256L23.105 63.991C23.105 63.99 23.105 63.99 23.105 63.99L23.038 63.707C23.038 63.706 23.038 63.706 23.038 63.706L22.972 63.439C22.972 63.439 22.972 63.439 22.971 63.437C22.971 63.437 22.971 63.437 22.971 63.435C22.971 63.435 22.971 63.434 22.971 63.433L21.955 60.051V60.048C21.954 60.048 21.954 60.048 21.954 60.048C21.954 60.046 21.954 60.046 21.954 60.045L21.922 59.952L21.909 59.87V59.778V59.668L21.925 59.561L21.942 59.445L21.957 59.336L21.989 59.225C21.989 59.225 21.989 59.225 21.989 59.224C21.989 59.223 21.989 59.223 21.99 59.222L22.021 59.093C22.021 59.093 22.022 59.093 22.022 59.092L22.055 58.975C22.055 58.975 22.054 58.975 22.055 58.973C22.055 58.973 22.055 58.973 22.055 58.972L22.087 58.846L22.132 58.742C22.132 58.741 22.132 58.741 22.132 58.741L22.85 57.19C22.85 57.19 22.85 57.189 22.85 57.188C22.85 57.188 22.851 57.188 22.851 57.187L23.851 54.819C23.851 54.819 23.851 54.819 23.851 54.818C23.851 54.817 23.851 54.817 23.852 54.817L24.786 52.432C24.786 52.431 24.786 52.431 24.786 52.43H24.787L25.654 50.045C25.654 50.044 25.654 50.043 25.654 50.043C25.654 50.042 25.655 50.041 25.655 50.041L26.423 47.656V47.655V47.654L27.124 45.286C27.124 45.286 27.124 45.285 27.124 45.284C27.124 45.283 27.124 45.283 27.124 45.283L27.741 42.915C27.741 42.915 27.741 42.915 27.741 42.914C27.741 42.913 27.741 42.914 27.742 42.913L28.276 40.561L28.275 40.56C28.276 40.56 28.276 40.559 28.276 40.558L28.726 38.224C28.726 38.224 28.725 38.223 28.726 38.223C28.726 38.222 28.727 38.222 28.727 38.222L29.093 35.937C29.093 35.936 29.093 35.936 29.093 35.935C29.093 35.935 29.094 35.934 29.094 35.933L29.362 33.649C29.362 33.648 29.361 33.648 29.361 33.647L29.362 33.646L29.546 31.411C29.546 31.41 29.544 31.409 29.544 31.407C29.544 31.405 29.546 31.405 29.546 31.402V24.62L29.562 24.484L29.593 24.358V24.357C29.593 24.356 29.593 24.356 29.593 24.356L29.625 24.213L29.673 24.086L29.735 23.944L29.798 23.818L29.879 23.689C29.88 23.688 29.879 23.687 29.879 23.685C29.88 23.685 29.881 23.685 29.882 23.684L29.962 23.539L30.036 23.436L30.147 23.325L30.248 23.225L30.359 23.113L31.166 22.537L32.833 21.403C32.833 21.403 32.833 21.403 32.834 21.403L34.497 20.322L36.162 19.289L37.847 18.305L39.51 17.374L41.192 16.509L42.856 15.694L44.524 14.944L46.172 14.244L47.818 13.596L49.326 13.063V77.144H49.325ZM1.113 47.422L1.129 47.305L1.144 47.201L1.19 47.077C1.191 47.076 1.19 47.075 1.19 47.073C1.191 47.072 1.192 47.071 1.192 47.069L1.225 46.952C1.225 46.952 1.225 46.951 1.225 46.95C1.225 46.95 1.226 46.95 1.226 46.949L1.257 46.824L1.261 46.813L1.688 47.067L1.674 47.098C1.673 47.101 1.675 47.104 1.674 47.107C1.673 47.11 1.67 47.111 1.669 47.114L1.636 47.244L1.602 47.361C1.602 47.361 1.603 47.362 1.603 47.363C1.602 47.364 1.602 47.364 1.601 47.364L1.57 47.493H1.569L1.536 47.61C1.536 47.612 1.538 47.615 1.537 47.618C1.536 47.62 1.533 47.621 1.533 47.624L1.516 47.741L1.499 47.857L1.483 47.974C1.483 47.977 1.485 47.979 1.485 47.981C1.485 47.984 1.482 47.985 1.482 47.989V48.106C1.482 48.108 1.485 48.11 1.485 48.114C1.485 48.116 1.483 48.118 1.483 48.121L1.498 48.225L1.112 47.996V47.973C1.112 47.971 1.11 47.969 1.109 47.966C1.109 47.963 1.111 47.962 1.111 47.959L1.093 47.842C1.093 47.841 1.093 47.841 1.093 47.84L1.078 47.75V47.647L1.093 47.54L1.113 47.422ZM2.638 45.517C2.639 45.517 2.638 45.516 2.638 45.515C2.639 45.515 2.639 45.515 2.639 45.514L3.64 43.146C3.64 43.146 3.64 43.146 3.64 43.145C3.64 43.145 3.64 43.145 3.64 43.144L4.591 40.76C4.591 40.759 4.591 40.759 4.591 40.759C4.591 40.758 4.592 40.758 4.592 40.757L5.443 38.372V38.371C5.443 38.37 5.443 38.37 5.443 38.369L6.21 35.985V35.984L6.911 33.615C6.912 33.615 6.911 33.614 6.911 33.614C6.911 33.613 6.912 33.613 6.912 33.613L7.529 31.245V31.244C7.529 31.244 7.529 31.244 7.529 31.243L8.079 28.892C8.079 28.891 8.079 28.891 8.079 28.89C8.079 28.889 8.079 28.889 8.079 28.888L8.53 26.57C8.53 26.57 8.53 26.569 8.53 26.568C8.53 26.567 8.531 26.567 8.531 26.567L8.881 24.265C8.881 24.265 8.88 24.265 8.88 24.264C8.881 24.263 8.881 24.263 8.881 24.262L9.148 21.994C9.148 21.993 9.147 21.993 9.147 21.992C9.147 21.992 9.148 21.992 9.148 21.991L9.332 19.756C9.332 19.755 9.331 19.753 9.331 19.752C9.331 19.751 9.333 19.749 9.333 19.748V12.957L9.362 12.837C9.363 12.835 9.361 12.832 9.361 12.83C9.362 12.827 9.365 12.826 9.365 12.823L9.381 12.679L9.41 12.563L9.473 12.421C9.473 12.419 9.472 12.418 9.473 12.416C9.473 12.415 9.476 12.414 9.477 12.412L9.525 12.267L9.585 12.147L9.667 12.018C9.667 12.017 9.667 12.016 9.667 12.015C9.667 12.014 9.669 12.014 9.669 12.013L9.747 11.873L9.84 11.764C9.841 11.763 9.84 11.761 9.841 11.759C9.842 11.758 9.844 11.758 9.845 11.757L9.921 11.651L9.968 11.61V12.312V19.999V20.733C9.968 20.737 9.973 20.74 9.973 20.746C9.975 20.76 9.981 20.77 9.988 20.782C9.995 20.795 10.001 20.805 10.012 20.813C10.016 20.816 10.017 20.822 10.021 20.825L19.566 26.331L6.611 41.752L1.792 47.505C1.79 47.507 1.791 47.511 1.79 47.514C1.789 47.515 1.787 47.515 1.787 47.517L1.81 47.42L1.843 47.304C1.843 47.303 1.843 47.302 1.843 47.301C1.843 47.301 1.843 47.301 1.843 47.3L1.874 47.175L1.919 47.07L2.638 45.517ZM29.148 33.62L28.881 35.905L28.516 38.182L28.066 40.516L27.533 42.863L26.918 45.225L26.217 47.593L25.452 49.972L24.585 52.355V52.356L23.653 54.736L22.655 57.1L21.987 58.545L21.539 58.286L22.215 56.823C22.215 56.822 22.215 56.822 22.215 56.821C22.215 56.82 22.216 56.82 22.216 56.82L23.234 54.452V54.451C23.234 54.449 23.235 54.449 23.235 54.448L24.152 52.066L24.217 51.919C24.218 51.918 24.217 51.917 24.217 51.916C24.218 51.914 24.219 51.913 24.22 51.912L25.02 49.678C25.02 49.677 25.02 49.676 25.02 49.676C25.02 49.675 25.02 49.675 25.021 49.675L25.805 47.29V47.289C25.805 47.288 25.806 47.288 25.806 47.287L26.507 44.919C26.507 44.918 26.506 44.918 26.507 44.916C26.507 44.915 26.507 44.915 26.509 44.914L26.591 44.567L27.124 42.549C27.124 42.548 27.124 42.548 27.124 42.547C27.124 42.547 27.125 42.546 27.125 42.545L27.643 40.194C27.643 40.193 27.642 40.193 27.642 40.192C27.643 40.192 27.644 40.192 27.644 40.191L28.093 37.873V37.872C28.093 37.871 28.094 37.871 28.094 37.87L28.461 35.569C28.461 35.568 28.46 35.568 28.46 35.567C28.46 35.567 28.461 35.567 28.461 35.566L28.694 33.632L28.744 33.285C28.745 33.282 28.742 33.28 28.742 33.277C28.742 33.274 28.745 33.273 28.745 33.269V33.039L28.879 31.528L28.911 31.224L29.327 31.46L29.148 33.62ZM29.331 31.215L28.928 30.986V30.815V24.433L29.331 24.672V31.215ZM28.248 35.536L27.882 37.836L27.433 40.148L26.916 42.496L26.389 44.489L22.011 49.705L11.627 43.71L22.793 30.402L28.474 33.673L28.248 35.536ZM23.143 29.985L28.532 33.094V33.26L28.505 33.446L22.933 30.236L23.143 29.985ZM28.909 23.48C28.908 23.481 28.909 23.482 28.908 23.482C28.908 23.483 28.908 23.483 28.907 23.484L28.841 23.634C28.84 23.635 28.841 23.635 28.841 23.637C28.84 23.638 28.839 23.638 28.838 23.64L28.788 23.773C28.787 23.775 28.789 23.778 28.788 23.78C28.787 23.783 28.784 23.784 28.783 23.787L28.75 23.937L28.718 24.068C28.717 24.072 28.72 24.076 28.72 24.081C28.719 24.086 28.715 24.089 28.715 24.094V24.244V30.629L10.185 19.93V12.49L28.975 23.349L28.909 23.48ZM10.185 20.178L28.715 30.877V31.045L28.683 31.341L19.787 26.203L10.185 20.664V20.178ZM19.757 26.433L28.659 31.574L28.546 32.857L23.172 29.755C23.161 29.749 23.15 29.753 23.14 29.751C23.126 29.748 23.114 29.744 23.1 29.746C23.087 29.748 23.077 29.757 23.064 29.765C23.055 29.771 23.043 29.771 23.036 29.779L22.686 30.196L11.38 43.669C11.378 43.672 11.379 43.675 11.378 43.678C11.376 43.68 11.371 43.681 11.37 43.684C11.364 43.694 11.367 43.706 11.366 43.716C11.363 43.73 11.357 43.741 11.36 43.755C11.362 43.769 11.371 43.779 11.379 43.791C11.385 43.8 11.385 43.812 11.394 43.819C11.397 43.821 11.401 43.821 11.404 43.823C11.406 43.824 11.406 43.828 11.41 43.83L21.981 49.933C21.999 49.943 22.017 49.948 22.035 49.948C22.066 49.948 22.096 49.935 22.117 49.91L26.27 44.962L25.601 47.226L24.819 49.605L24.062 51.718L6.857 41.791L19.757 26.433ZM6.717 41.958L23.982 51.92L23.954 51.982C23.954 51.984 23.954 51.984 23.954 51.984C23.954 51.986 23.953 51.986 23.953 51.988L23.036 54.369L22.02 56.733L21.304 58.284C21.304 58.285 21.304 58.285 21.304 58.286C21.304 58.287 21.303 58.287 21.303 58.287L21.253 58.404C21.252 58.406 21.253 58.41 21.253 58.412C21.252 58.416 21.248 58.417 21.247 58.42L21.216 58.545L21.188 58.609L2.037 47.545L6.717 41.958ZM21.886 58.771C21.885 58.774 21.887 58.778 21.886 58.78C21.886 58.784 21.882 58.784 21.881 58.788L21.848 58.917L21.815 59.034C21.815 59.035 21.816 59.036 21.816 59.036C21.815 59.037 21.815 59.037 21.814 59.038L21.782 59.167L21.749 59.284C21.749 59.287 21.751 59.29 21.75 59.292C21.749 59.295 21.746 59.296 21.746 59.298L21.73 59.416L21.713 59.532L21.696 59.649C21.696 59.651 21.698 59.653 21.698 59.655C21.697 59.659 21.695 59.661 21.695 59.664V59.78V59.867L21.304 59.639L21.292 59.61V59.53V59.414V59.297V59.187L21.307 59.08L21.322 58.971L21.353 58.865L21.369 58.815C21.371 58.809 21.368 58.803 21.369 58.797C21.369 58.791 21.375 58.787 21.375 58.781V58.719L21.417 58.623C21.417 58.621 21.416 58.617 21.417 58.615C21.418 58.611 21.421 58.609 21.422 58.607L21.453 58.484L21.901 58.742L21.886 58.771ZM3.42 50.146L2.154 47.857L21.14 58.827L21.115 58.915C21.115 58.919 21.117 58.921 21.116 58.923C21.116 58.926 21.113 58.928 21.113 58.93L21.095 59.046L21.079 59.163C21.078 59.166 21.08 59.168 21.08 59.171C21.08 59.174 21.077 59.175 21.077 59.179V59.295V59.412V59.528V59.629C21.077 59.637 21.083 59.641 21.085 59.648C21.086 59.656 21.082 59.662 21.085 59.669L21.117 59.747L21.338 60.485L3.42 50.146ZM1.774 47.563C1.774 47.567 1.771 47.571 1.771 47.574L1.774 47.563ZM1.727 48.314C1.727 48.312 1.73 48.309 1.729 48.306L1.712 48.205L1.697 48.101V47.996L1.712 47.889L1.729 47.772L1.745 47.664L1.768 47.583C1.768 47.586 1.771 47.588 1.772 47.591C1.773 47.599 1.776 47.605 1.779 47.612C1.781 47.616 1.778 47.621 1.781 47.625L3.234 50.25L3.105 53.546L3.098 53.481C3.097 53.481 3.097 53.48 3.096 53.479C3.096 53.477 3.097 53.477 3.097 53.475L3.047 53.192L2.997 52.909L2.947 52.626C2.947 52.624 2.946 52.624 2.946 52.623C2.946 52.622 2.947 52.622 2.946 52.62L2.88 52.323L2.83 52.057C2.83 52.056 2.829 52.055 2.829 52.054C2.829 52.053 2.83 52.053 2.829 52.051L2.763 51.768C2.763 51.768 2.762 51.768 2.762 51.766C2.762 51.765 2.762 51.764 2.762 51.762L1.733 48.408V48.324C1.73 48.32 1.728 48.318 1.727 48.314ZM3.448 50.41L21.427 60.785L21.956 62.57L3.448 51.881V50.41ZM22.323 63.026L22.236 62.763L21.62 60.683C21.62 60.683 21.619 60.683 21.619 60.682L21.396 59.939L21.76 60.15L22.688 63.238L22.323 63.026ZM30.097 23.069L29.996 23.169L29.88 23.286C29.877 23.288 29.878 23.292 29.876 23.295C29.874 23.297 29.87 23.297 29.868 23.299L29.785 23.416C29.784 23.418 29.785 23.42 29.784 23.422C29.782 23.424 29.779 23.424 29.778 23.426L29.695 23.575L29.614 23.705C29.613 23.706 29.614 23.708 29.613 23.71C29.613 23.712 29.611 23.712 29.609 23.714L29.543 23.847C29.542 23.848 29.543 23.849 29.543 23.85C29.542 23.85 29.541 23.85 29.541 23.851L29.474 24.001C29.474 24.002 29.475 24.003 29.474 24.004C29.474 24.005 29.473 24.005 29.472 24.007L29.421 24.14C29.421 24.142 29.423 24.145 29.422 24.147C29.421 24.15 29.418 24.151 29.418 24.154L29.384 24.304C29.384 24.305 29.384 24.305 29.384 24.305L29.352 24.435V24.436L28.928 24.184V24.107L28.958 23.987L28.957 23.986C28.958 23.985 28.959 23.985 28.959 23.984L28.99 23.842L29.038 23.715L29.101 23.573L29.163 23.446L29.21 23.368L29.242 23.32C29.243 23.319 29.242 23.316 29.243 23.315C29.244 23.314 29.246 23.315 29.247 23.313L29.325 23.172L29.418 23.064L29.515 22.951L29.613 22.853L29.628 22.839L29.667 22.806L30.113 23.052L30.097 23.069ZM29.362 22.802C29.361 22.803 29.362 22.805 29.361 22.806C29.359 22.807 29.358 22.806 29.357 22.807L29.256 22.924L29.156 23.041C29.153 23.044 29.154 23.049 29.152 23.052C29.15 23.055 29.145 23.056 29.143 23.059L29.084 23.167L10.185 12.244V11.707L29.381 22.784L29.362 22.802ZM1.534 48.494L2.478 51.567L2.131 51.371L1.191 48.29L1.534 48.494ZM2.564 51.862L2.62 52.097L2.669 52.361C2.669 52.363 2.67 52.363 2.67 52.364C2.67 52.365 2.67 52.365 2.67 52.365L2.737 52.666L2.786 52.945L2.836 53.228L2.885 53.506L2.918 53.804L2.951 54.101L2.968 54.415L2.985 54.716C2.985 54.716 2.986 54.717 2.986 54.719C2.986 54.72 2.985 54.72 2.985 54.721L3.018 55.033L3.023 55.14L2.613 54.913V54.66C2.613 54.658 2.611 54.656 2.611 54.654C2.611 54.652 2.613 54.65 2.612 54.648L2.579 54.351L2.562 54.038V54.037L2.545 53.737C2.545 53.736 2.545 53.736 2.545 53.734C2.545 53.733 2.545 53.732 2.545 53.731L2.512 53.431C2.512 53.429 2.511 53.429 2.511 53.428C2.511 53.427 2.511 53.426 2.511 53.425L2.462 53.128L2.429 52.847C2.429 52.845 2.427 52.844 2.427 52.843C2.427 52.842 2.428 52.841 2.427 52.84L2.378 52.558L2.327 52.257C2.327 52.256 2.326 52.256 2.326 52.255C2.326 52.253 2.327 52.253 2.326 52.251L2.26 51.97L2.21 51.705C2.21 51.704 2.209 51.704 2.209 51.702C2.209 51.702 2.21 51.702 2.209 51.7L2.199 51.655L2.564 51.862ZM2.614 55.158L3.034 55.39V80.41L2.614 80.178V55.158ZM3.251 79.973L3.248 79.981V79.636L3.251 79.973ZM3.415 80.148L3.561 80.236L3.338 80.359L3.415 80.148ZM3.829 80.148L3.465 79.929L3.448 52.126L22.046 62.868L22.132 63.127L22.197 63.405C22.197 63.405 22.198 63.405 22.198 63.406L22.264 63.671C22.264 63.672 22.264 63.673 22.264 63.673L22.33 63.953L22.379 64.218H22.38L22.43 64.5L22.479 64.797L22.512 65.094L22.545 65.395L22.578 65.704V66L22.579 66.002C22.579 66.004 22.578 66.004 22.578 66.006L22.595 66.322L22.612 66.634V90.977L3.829 80.148ZM22.821 66.57L22.807 66.31L22.791 65.998V65.699C22.791 65.697 22.788 65.695 22.788 65.693C22.788 65.691 22.79 65.69 22.79 65.687L22.757 65.371L22.723 65.07L22.689 64.771C22.689 64.769 22.688 64.769 22.687 64.767C22.687 64.766 22.688 64.765 22.688 64.764L22.638 64.464C22.638 64.463 22.638 64.463 22.638 64.463C22.638 64.463 22.638 64.463 22.638 64.462L22.588 64.179L22.538 63.911L22.537 63.909C22.537 63.909 22.538 63.907 22.537 63.906L22.471 63.623C22.471 63.622 22.47 63.622 22.47 63.622L22.404 63.356L22.394 63.313L22.774 63.534L22.83 63.755L22.897 64.038C22.897 64.04 22.897 64.04 22.897 64.04L22.962 64.303L23.012 64.583L23.061 64.862L23.094 65.159C23.094 65.161 23.095 65.161 23.095 65.163C23.095 65.163 23.094 65.165 23.095 65.165L23.144 65.46L23.16 65.755C23.16 65.757 23.163 65.757 23.163 65.759C23.163 65.761 23.161 65.763 23.162 65.765L23.211 66.074V66.367C23.211 66.367 23.211 66.368 23.211 66.369C23.211 66.371 23.211 66.371 23.211 66.373L23.228 66.689L23.234 66.809L22.821 66.57ZM47.13 13.021C47.129 13.021 47.129 13.023 47.127 13.023C47.127 13.023 47.126 13.023 47.125 13.023L45.474 13.673C45.474 13.673 45.474 13.674 45.473 13.674C45.473 13.674 45.473 13.674 45.472 13.674L43.804 14.375C43.804 14.375 43.804 14.375 43.803 14.375C43.803 14.375 43.803 14.375 43.802 14.375L42.135 15.126C42.134 15.126 42.134 15.126 42.133 15.127C42.133 15.127 42.132 15.127 42.131 15.127L40.463 15.944V15.945C40.463 15.945 40.463 15.945 40.461 15.945L38.777 16.812C38.777 16.812 38.777 16.813 38.777 16.814C38.775 16.814 38.775 16.814 38.774 16.814L37.107 17.748C37.106 17.748 37.106 17.749 37.106 17.749C37.105 17.749 37.105 17.749 37.104 17.749L35.437 18.733C35.437 18.733 35.437 18.734 35.435 18.734L33.75 19.768C33.75 19.768 33.75 19.768 33.749 19.768H33.748L32.081 20.852C32.08 20.852 32.08 20.852 32.08 20.852H32.079L30.411 21.986C30.41 21.986 30.41 21.987 30.41 21.987C30.409 21.988 30.409 21.987 30.408 21.988L29.591 22.589C29.59 22.589 29.59 22.59 29.589 22.591C29.588 22.592 29.587 22.591 29.586 22.592L29.542 22.627L10.306 11.527L29.216 2.517L47.304 12.959L47.13 13.021ZM29.115 2.333L10.467 11.218L10.957 10.875L12.622 9.742L14.289 8.642L15.951 7.611L17.636 6.628L19.299 5.713L20.982 4.83L22.645 4.015L24.312 3.265L25.961 2.566L27.606 1.934H27.607L29.115 1.386V2.333ZM9.121 19.559L8.718 19.33V12.772L9.121 13.001V19.559ZM22.825 91.834V91.162V66.818L23.245 67.062V92.078L22.825 91.834ZM9.322 11.295L9.42 11.197C9.421 11.197 9.421 11.194 9.421 11.193C9.422 11.192 9.423 11.192 9.425 11.191L9.467 11.143L9.888 11.393L9.887 11.394L9.775 11.491C9.771 11.494 9.772 11.5 9.769 11.503C9.766 11.506 9.761 11.505 9.758 11.51L9.678 11.622L9.58 11.736C9.578 11.739 9.579 11.743 9.577 11.747C9.574 11.75 9.57 11.75 9.568 11.754L9.485 11.903L9.404 12.033C9.403 12.034 9.404 12.037 9.403 12.038C9.402 12.039 9.4 12.039 9.399 12.041L9.332 12.174C9.331 12.176 9.333 12.179 9.332 12.182C9.331 12.184 9.328 12.185 9.327 12.188L9.278 12.336L9.214 12.479C9.213 12.482 9.215 12.485 9.214 12.489C9.213 12.492 9.21 12.493 9.209 12.497L9.175 12.63C9.175 12.633 9.176 12.634 9.176 12.637C9.176 12.64 9.173 12.641 9.173 12.643L9.158 12.776L8.733 12.535L8.75 12.462C8.75 12.46 8.749 12.458 8.749 12.456C8.75 12.455 8.752 12.454 8.752 12.452L8.768 12.325L8.799 12.186L8.846 12.059L8.909 11.918L8.972 11.791L9.055 11.642L9.131 11.52L9.227 11.409L9.322 11.295Z" fill="white"/>
</svg>
