<svg id="Layer_1" data-name="Layer 1" xmlns="http://www.w3.org/2000/svg" viewBox="0 0 549.49 84.14"><defs><style>.cls-1{fill:#fff;}</style></defs><path class="cls-1" d="M0,84V.18H44V16.54H16.59v18.4H44V51.6H16.59V67.49H44V84Zm46.89,0V.18H64.13V84Zm103.57-49A45.69,45.69,0,0,1,151,42,40.3,40.3,0,0,1,138.6,71.75a40.3,40.3,0,0,1-29.74,12.39A40.55,40.55,0,0,1,79.12,71.75,40.5,40.5,0,0,1,66.85,42,40.75,40.75,0,0,1,79.12,12.27,40.75,40.75,0,0,1,108.86,0,40.5,40.5,0,0,1,138.6,12.27a43.38,43.38,0,0,1,8.18,11.16H126.57a24.35,24.35,0,0,0-17.47-6.95A25.44,25.44,0,0,0,83.5,42a25.42,25.42,0,0,0,25.6,25.65,24.43,24.43,0,0,0,18-7.47,26.17,26.17,0,0,0,5.79-8.59H111.26V34.94Zm19.67,15.49V84H153.59V.18h16.54V33.77h26.12V.18h16.53V84H196.25V50.43ZM229,84V17.06H215.56V.18h44.23V17.06h-13.9V84Zm60,0V53.52L262.28.18h19.16l16.37,33,15.83-33h19.05L305.81,53.52V84Zm59.57,0V17.06H335.17V.18h44.24V17.06H365.5V84ZM448,.18V51.36L484.5.18h19.1L444.82,84H431.73V31.85L395.16,84H382.07V.18h16.24V51.36L434.77.18Zm29.63,71.57A40.5,40.5,0,0,1,465.34,42a40.75,40.75,0,0,1,12.27-29.74,42.19,42.19,0,0,1,59.49,0A40.55,40.55,0,0,1,549.49,42,40.3,40.3,0,0,1,537.1,71.75a41.9,41.9,0,0,1-59.49,0Zm48-11.56A24.8,24.8,0,0,0,533.12,42a24.63,24.63,0,0,0-7.53-18,24.41,24.41,0,0,0-18-7.48A25.44,25.44,0,0,0,482,42a25.42,25.42,0,0,0,25.59,25.65A24.44,24.44,0,0,0,525.59,60.19Z"/></svg>