<?xml version="1.0" encoding="UTF-8"?>
<svg width="550px" height="85px" viewBox="0 0 550 85" version="1.1" xmlns="http://www.w3.org/2000/svg" xmlns:xlink="http://www.w3.org/1999/xlink">
    <title>Shape</title>
    <g id="Page-1" stroke="none" stroke-width="1" fill="none" fill-rule="evenodd">
        <path d="M0,84 L0,0.18 L44,0.18 L44,16.54 L16.59,16.54 L16.59,34.94 L44,34.94 L44,51.6 L16.59,51.6 L16.59,67.49 L44,67.49 L44,84 L0,84 Z M46.89,84 L46.89,0.18 L64.13,0.18 L64.13,84 L46.89,84 Z M150.46,35 C150.819271,37.3160297 150.999804,39.6562703 151,42 C151.18477,53.2097738 146.691559,63.9898559 138.6,71.75 C130.840508,79.8353081 120.064814,84.324577 108.86,84.14 C97.6609871,84.2943834 86.8968439,79.809927 79.12,71.75 C71.0965922,63.9536533 66.6554971,53.185717 66.85,42 C66.6907912,30.8268479 71.1267785,20.0785265 79.12,12.27 C86.9309302,4.27424018 97.6833917,-0.161963642 108.86,-8.63892291e-16 C120.042263,-0.191726136 130.806047,4.24914917 138.6,12.27 C141.906206,15.5283789 144.667998,19.2962997 146.78,23.43 L126.57,23.43 C121.911985,18.8678701 115.618954,16.3643459 109.1,16.48 C102.311325,16.4372691 95.7871694,19.1096751 90.9792496,23.9025701 C86.1713298,28.6954651 83.4785171,35.2112244 83.5,42 C83.4381817,48.8128824 86.1138403,55.3654228 90.9267716,60.1877543 C95.7397028,65.0100858 102.28701,67.6985247 109.1,67.65 C115.876419,67.7645814 122.395914,65.0589909 127.1,60.18 C129.583093,57.7310733 131.551654,54.8105319 132.89,51.59 L111.26,51.59 L111.26,34.94 L150.46,35 Z M170.13,50.49 L170.13,84 L153.59,84 L153.59,0.18 L170.13,0.18 L170.13,33.77 L196.25,33.77 L196.25,0.18 L212.78,0.18 L212.78,84 L196.25,84 L196.25,50.43 L170.13,50.49 Z M229,84 L229,17.06 L215.56,17.06 L215.56,0.18 L259.79,0.18 L259.79,17.06 L245.89,17.06 L245.89,84 L229,84 Z M289,84 L289,53.52 L262.28,0.18 L281.44,0.18 L297.81,33.18 L313.64,0.18 L332.69,0.18 L305.81,53.52 L305.81,84 L289,84 Z M348.57,84 L348.57,17.06 L335.17,17.06 L335.17,0.18 L379.41,0.18 L379.41,17.06 L365.5,17.06 L365.5,84 L348.57,84 Z M448,0.18 L448,51.36 L484.5,0.18 L503.6,0.18 L444.82,84 L431.73,84 L431.73,31.85 L395.16,84 L382.07,84 L382.07,0.18 L398.31,0.18 L398.31,51.36 L434.77,0.18 L448,0.18 Z M477.63,71.75 C469.599241,63.9570742 465.150725,53.1886979 465.34,42 C465.178036,30.8233917 469.61424,20.0709302 477.61,12.26 C494.065925,-4.0994502 520.644075,-4.0994502 537.1,12.26 C545.159927,20.0368439 549.644383,30.8009871 549.49,42 C549.677373,53.2082708 545.187879,63.9881282 537.1,71.75 C529.232891,79.6797357 518.525144,84.1399174 507.355,84.1399174 C496.184856,84.1399174 485.477109,79.6797357 477.61,71.75 L477.63,71.75 Z M525.63,60.19 C530.527498,55.4184651 533.237675,48.836606 533.12,42 C533.194916,35.2192461 530.47087,28.7075832 525.59,24 C520.889027,19.1152919 514.36838,16.4056007 507.59,16.52 C500.810002,16.4800143 494.29454,19.1481285 489.489959,23.9320567 C484.685378,28.7159849 481.989222,35.2198929 482,42 C481.938216,48.8111365 484.612509,55.3621345 489.423265,60.1841699 C494.23402,65.0062054 500.778738,67.6958326 507.59,67.65 C514.364691,67.7659794 520.8835,65.0642951 525.59,60.19 L525.63,60.19 Z" id="Shape" fill="#FF3333" fill-rule="nonzero"></path>
    </g>
</svg>