<svg width="58" height="93" viewBox="0 0 58 93" fill="none" xmlns="http://www.w3.org/2000/svg">
<path d="M14.912 63.966L14.928 64.057V64.065C14.928 64.069 14.931 64.071 14.932 64.075C14.932 64.077 14.929 64.081 14.929 64.083L14.946 64.184C14.948 64.193 14.955 64.197 14.957 64.204C14.959 64.21 14.957 64.217 14.959 64.223L15.01 64.306C15.011 64.308 15.014 64.307 15.015 64.309C15.016 64.313 15.015 64.315 15.017 64.318L15.083 64.401L15.15 64.485C15.158 64.495 15.172 64.494 15.183 64.501C15.183 64.501 15.183 64.501 15.184 64.502L15.267 64.569C15.268 64.569 15.27 64.569 15.272 64.569C15.273 64.571 15.273 64.575 15.275 64.577C15.282 64.583 15.291 64.583 15.298 64.587C15.305 64.591 15.308 64.601 15.317 64.603L15.378 64.624V64.819C15.378 64.825 15.382 64.828 15.383 64.833C15.385 64.848 15.391 64.857 15.398 64.869C15.405 64.881 15.411 64.892 15.422 64.9C15.426 64.904 15.426 64.91 15.431 64.912L17.199 65.93C17.216 65.939 17.234 65.944 17.252 65.944C17.272 65.944 17.292 65.938 17.311 65.926L17.644 65.709C17.649 65.707 17.649 65.701 17.652 65.697C17.663 65.687 17.668 65.677 17.675 65.665C17.681 65.652 17.686 65.642 17.688 65.627C17.688 65.623 17.693 65.619 17.692 65.613L17.542 63.112C17.542 63.107 17.538 63.105 17.537 63.101C17.536 63.091 17.531 63.083 17.526 63.074C17.523 63.068 17.526 63.06 17.522 63.055C17.521 63.053 17.517 63.053 17.514 63.05C17.51 63.044 17.504 63.04 17.497 63.034C17.493 63.032 17.493 63.026 17.489 63.024L15.739 62.024C15.734 62.022 15.73 62.024 15.724 62.022C15.711 62.016 15.699 62.017 15.684 62.017C15.67 62.017 15.658 62.017 15.646 62.022C15.642 62.024 15.636 62.022 15.631 62.024L15.431 62.141C15.427 62.143 15.427 62.149 15.423 62.153C15.415 62.159 15.41 62.164 15.404 62.172C15.401 62.176 15.395 62.177 15.392 62.181C15.39 62.185 15.392 62.191 15.391 62.195C15.387 62.205 15.385 62.212 15.384 62.22C15.383 62.226 15.379 62.229 15.379 62.234V63.347L15.298 63.363C15.291 63.365 15.288 63.372 15.281 63.375C15.275 63.377 15.268 63.375 15.261 63.379L15.128 63.461C15.124 63.464 15.124 63.469 15.121 63.472C15.118 63.475 15.112 63.474 15.109 63.477L15.043 63.543L15.026 63.561L15.009 63.577C15.004 63.583 15.005 63.592 15 63.598C14.996 63.604 14.988 63.606 14.985 63.614L14.952 63.697C14.949 63.704 14.954 63.71 14.952 63.718C14.951 63.724 14.944 63.73 14.944 63.738V63.754L14.932 63.787C14.932 63.79 14.933 63.791 14.933 63.794C14.932 63.797 14.93 63.797 14.929 63.801L14.912 63.883C14.911 63.887 14.914 63.891 14.914 63.895C14.914 63.899 14.91 63.901 14.91 63.905V63.956C14.91 63.959 14.913 63.96 14.914 63.964C14.915 63.961 14.912 63.963 14.912 63.966ZM16.14 63.88V63.877L16.123 63.795C16.122 63.789 16.116 63.787 16.114 63.781C16.113 63.777 16.115 63.771 16.114 63.767L16.08 63.701C16.079 63.697 16.074 63.697 16.073 63.693C16.07 63.691 16.072 63.687 16.07 63.683L16.02 63.617C16.018 63.615 16.015 63.615 16.013 63.613C16.011 63.611 16.012 63.607 16.01 63.605L15.96 63.556C15.958 63.554 15.955 63.554 15.952 63.552C15.951 63.55 15.951 63.547 15.949 63.545L15.94 63.54L16.443 63.264L16.468 63.254H16.472L16.496 63.262L16.525 63.291L16.57 63.336L16.61 63.389L16.631 63.433L16.646 63.502C16.646 63.505 16.649 63.506 16.65 63.509C16.65 63.512 16.649 63.514 16.649 63.516L16.657 63.539L16.65 63.58L16.648 63.584L16.637 63.596L16.14 63.88ZM16.498 63.047C16.494 63.046 16.49 63.041 16.485 63.041H16.452C16.446 63.041 16.442 63.047 16.436 63.048C16.429 63.049 16.424 63.045 16.418 63.047L16.368 63.064C16.365 63.065 16.364 63.069 16.36 63.071C16.357 63.072 16.353 63.071 16.351 63.071L15.842 63.352V62.666L16.502 63.046C16.5 63.046 16.499 63.047 16.498 63.047ZM15.841 64.604L15.953 64.542C15.958 64.539 15.958 64.533 15.963 64.53C15.967 64.527 15.973 64.527 15.978 64.524L16.028 64.474C16.032 64.47 16.031 64.463 16.034 64.458C16.037 64.455 16.042 64.456 16.044 64.453L16.094 64.37C16.1 64.36 16.096 64.35 16.098 64.341C16.101 64.331 16.11 64.325 16.11 64.315V64.199V64.144L16.756 63.774C16.76 63.771 16.761 63.765 16.765 63.763C16.769 63.759 16.775 63.76 16.779 63.757L16.812 63.724C16.815 63.72 16.814 63.716 16.817 63.712C16.822 63.706 16.828 63.702 16.833 63.695L16.85 63.661C16.852 63.657 16.849 63.653 16.85 63.649C16.852 63.643 16.857 63.639 16.858 63.634L16.875 63.551C16.876 63.541 16.87 63.533 16.87 63.524C16.869 63.514 16.875 63.505 16.872 63.497L16.857 63.452L16.842 63.377C16.841 63.37 16.836 63.368 16.833 63.364C16.832 63.358 16.835 63.354 16.833 63.349L16.799 63.282C16.798 63.28 16.794 63.278 16.792 63.276C16.79 63.272 16.791 63.269 16.789 63.266L16.739 63.2C16.738 63.197 16.734 63.198 16.732 63.195C16.73 63.193 16.731 63.19 16.729 63.188L16.7 63.159L17.048 63.358V65.313L15.844 64.62V64.604H15.841ZM17.359 63.621L17.475 65.56L17.359 65.636V63.621Z" fill="white"/>
<path d="M31.57 27.911C31.571 27.913 31.573 27.914 31.574 27.917C31.576 27.927 31.582 27.933 31.586 27.94C31.59 27.947 31.587 27.955 31.592 27.961C31.594 27.964 31.598 27.962 31.6 27.965C31.606 27.971 31.611 27.976 31.618 27.98C31.62 27.982 31.62 27.986 31.624 27.988L50.433 38.861C50.451 38.87 50.469 38.875 50.488 38.875C50.49 38.875 50.493 38.875 50.496 38.875C50.529 38.872 50.555 38.852 50.572 38.826C50.574 38.824 50.578 38.825 50.58 38.822C50.586 38.812 50.582 38.801 50.584 38.79C50.587 38.779 50.596 38.771 50.594 38.76L50.577 38.543C50.577 38.542 50.576 38.542 50.576 38.54C50.576 38.54 50.577 38.539 50.577 38.538L47.775 17.16C47.775 17.157 47.772 17.156 47.771 17.154C47.769 17.14 47.759 17.131 47.75 17.118C47.742 17.107 47.738 17.095 47.727 17.088C47.725 17.086 47.725 17.083 47.722 17.082L29.078 6.327L28.878 6.21C28.867 6.204 28.855 6.208 28.843 6.206C28.831 6.204 28.822 6.196 28.81 6.197C28.808 6.197 28.807 6.2 28.804 6.2C28.79 6.203 28.782 6.213 28.769 6.22C28.757 6.228 28.745 6.233 28.737 6.244C28.736 6.246 28.733 6.246 28.732 6.248C28.726 6.259 28.729 6.271 28.727 6.282C28.725 6.294 28.716 6.303 28.718 6.316L31.57 27.911ZM50.335 38.352L31.925 27.714L29.159 6.62L47.569 17.241L50.335 38.352Z" fill="white"/>
<path d="M2.322 57.258C2.323 57.266 2.329 57.27 2.331 57.276C2.333 57.282 2.33 57.288 2.332 57.294L2.399 57.427C2.399 57.428 2.4 57.429 2.4 57.429C2.4 57.431 2.4 57.431 2.4 57.431L2.483 57.581C2.483 57.582 2.485 57.582 2.485 57.583C2.485 57.584 2.485 57.585 2.485 57.586L2.568 57.72C2.57 57.724 2.575 57.722 2.577 57.724C2.58 57.729 2.578 57.736 2.583 57.739L2.699 57.855C2.702 57.859 2.705 57.857 2.709 57.859C2.71 57.861 2.71 57.865 2.713 57.867L2.83 57.951C2.834 57.953 2.839 57.953 2.843 57.955C2.846 57.957 2.847 57.961 2.85 57.962L2.967 58.012C2.973 58.015 2.98 58.015 2.986 58.016C2.988 58.017 2.989 58.019 2.991 58.02L3.091 58.036C3.096 58.038 3.103 58.038 3.108 58.038C3.12 58.038 3.131 58.036 3.142 58.033L3.243 58C3.246 57.999 3.247 57.995 3.25 57.993C3.255 57.991 3.26 57.992 3.265 57.989L3.482 57.856C3.489 57.851 3.49 57.842 3.496 57.836C3.5 57.832 3.507 57.834 3.511 57.828L3.561 57.762C3.562 57.76 3.561 57.756 3.563 57.754C3.565 57.75 3.569 57.749 3.571 57.744L3.621 57.644C3.624 57.636 3.621 57.628 3.622 57.621C3.624 57.612 3.632 57.605 3.632 57.598V57.481C3.632 57.475 3.627 57.473 3.627 57.468C3.627 57.463 3.63 57.459 3.629 57.455L3.596 57.324L3.563 57.174C3.562 57.168 3.556 57.166 3.554 57.16C3.552 57.156 3.554 57.15 3.552 57.145L3.469 56.995C3.468 56.992 3.465 56.992 3.463 56.99C3.461 56.988 3.463 56.984 3.461 56.982L3.361 56.849C3.359 56.845 3.353 56.845 3.351 56.842C3.348 56.839 3.349 56.835 3.345 56.831L3.232 56.735L3.134 56.637C3.127 56.629 3.117 56.63 3.109 56.625C3.101 56.621 3.096 56.611 3.088 56.609L2.971 56.576C2.969 56.574 2.966 56.577 2.964 56.576C2.962 56.576 2.961 56.573 2.958 56.572L2.858 56.556C2.851 56.554 2.846 56.56 2.84 56.56C2.834 56.56 2.829 56.554 2.822 56.556L2.722 56.572C2.714 56.574 2.71 56.582 2.702 56.585C2.694 56.588 2.686 56.585 2.679 56.59L2.462 56.74C2.459 56.742 2.459 56.746 2.457 56.749C2.454 56.751 2.45 56.75 2.447 56.752L2.381 56.819C2.375 56.825 2.377 56.834 2.372 56.84C2.368 56.846 2.36 56.849 2.357 56.856L2.323 56.939C2.322 56.944 2.324 56.948 2.323 56.954C2.323 56.958 2.317 56.961 2.317 56.966L2.3 57.1C2.3 57.105 2.304 57.109 2.304 57.113C2.304 57.118 2.3 57.122 2.3 57.127L2.322 57.258ZM3.006 56.807L3.086 56.887C3.087 56.889 3.089 56.888 3.09 56.889C3.091 56.889 3.09 56.892 3.091 56.893L3.199 56.986L3.288 57.104L3.36 57.234L3.389 57.369C3.389 57.37 3.39 57.37 3.39 57.371C3.39 57.371 3.389 57.372 3.39 57.372L3.42 57.491V57.571L3.413 57.587L3.399 57.468C3.399 57.464 3.394 57.46 3.393 57.456C3.392 57.451 3.395 57.446 3.393 57.442L3.343 57.308C3.343 57.305 3.339 57.304 3.338 57.301C3.337 57.299 3.338 57.295 3.337 57.293L3.254 57.144C3.253 57.141 3.25 57.141 3.248 57.139C3.246 57.137 3.248 57.133 3.246 57.131L3.146 56.998C3.144 56.995 3.141 56.996 3.139 56.993C3.138 56.991 3.138 56.988 3.136 56.986L3.019 56.869C3.018 56.868 3.015 56.869 3.014 56.867C3.013 56.866 3.013 56.864 3.012 56.863L2.915 56.781L2.92 56.782L3.006 56.807ZM2.948 57.769L2.848 57.698L2.744 57.594L2.67 57.477L2.587 57.327L2.531 57.215L2.518 57.112L2.532 57.006L2.552 56.956L2.589 56.92L2.625 56.905L2.699 56.916L2.788 56.954L2.872 57.024L2.981 57.132L3.072 57.254L3.147 57.389L3.19 57.504L3.204 57.634V57.728L3.187 57.781L3.161 57.801L3.102 57.821L3.04 57.81L2.948 57.769Z" fill="white"/>
<path d="M0.547 82.074C0.697 82.158 0.858999 82.262 0.912999 82.308C0.917999 82.316 0.923999 82.326 0.930999 82.333L1.031 82.467C1.059 82.504 1.095 82.532 1.137 82.552L1.404 82.668C1.432 82.681 1.461 82.688 1.491 82.69C1.493 82.69 1.708 82.704 1.8 82.719C1.815 82.722 1.829 82.723 1.844 82.723C1.867 82.723 1.89 82.721 1.911 82.715L2.228 82.631C2.262 82.621 2.292 82.608 2.32 82.586L2.52 82.436C2.569 82.399 2.603 82.346 2.619 82.288L2.624 82.267L2.973 82.074C3.057 82.027 3.109 81.939 3.11 81.844C3.111 81.748 3.061 81.658 2.978 81.612L2.122 81.112L3.244 66.442L17.202 74.477L17.384 91.632C17.385 91.729 17.437 91.817 17.522 91.863C17.684 91.952 17.857 92.064 17.913 92.116C17.923 92.135 17.934 92.153 17.949 92.17L18.049 92.287C18.07 92.311 18.097 92.332 18.126 92.349L18.376 92.483C18.411 92.501 18.45 92.511 18.489 92.514L18.839 92.53C18.844 92.53 18.848 92.53 18.852 92.53C18.872 92.53 18.892 92.528 18.911 92.524L19.211 92.458C19.245 92.45 19.277 92.437 19.305 92.417L19.522 92.267C19.58 92.226 19.62 92.165 19.633 92.095L19.644 92.033L19.938 91.861C20.021 91.813 20.072 91.724 20.071 91.629L19.889 74.476L54.19 54.687L55.409 69.522L54.575 69.988C54.492 70.035 54.44 70.122 54.438 70.218C54.437 70.313 54.487 70.403 54.57 70.45C54.752 70.556 54.944 70.684 54.999 70.734L55.079 70.862C55.108 70.908 55.149 70.943 55.199 70.965L55.466 71.082C55.491 71.093 55.519 71.1 55.548 71.103L55.898 71.136C55.906 71.136 55.915 71.137 55.923 71.137C55.943 71.137 55.962 71.134 55.981 71.13L56.281 71.064C56.315 71.056 56.347 71.043 56.376 71.023L56.593 70.873C56.653 70.832 56.692 70.769 56.703 70.697L56.717 70.621L57.008 70.45C57.098 70.398 57.149 70.301 57.141 70.198L55.756 53.606L55.74 53.103L55.54 48.248L55.13 38.054L56.741 37.118C56.827 37.068 56.877 36.975 56.874 36.876L55.891 12.58C55.887 12.489 55.836 12.406 55.757 12.36L35.495 0.651997C35.453 0.628997 35.407 0.616997 35.361 0.616997C35.314 0.616997 35.269 0.628997 35.227 0.652997L27.873 4.904C27.78 4.959 27.728 5.063 27.742 5.17L30.776 28.282C30.788 28.364 30.837 28.437 30.908 28.479L32.315 29.289L32.303 29.298L2.787 51.061C2.029 51.621 1.18 52.233 1.021 52.325C0.994999 52.335 0.971999 52.347 0.948999 52.364C0.877999 52.419 0.838999 52.504 0.843999 52.593L0.893998 53.427C0.898998 53.514 0.945998 53.592 1.019 53.638L1.328 58.962L1.465 61.682C1.412 61.712 1.368 61.759 1.346 61.819L1.229 62.12C1.201 62.191 1.206 62.272 1.243 62.341L1.392 62.625C1.422 62.682 1.47 62.723 1.526 62.746C1.553 63.248 1.566 63.77 1.547 63.934C1.544 63.94 1.54 63.947 1.537 63.954L1.388 64.27C1.349 64.35 1.354 64.444 1.399 64.52C1.486 64.669 1.568 64.763 1.64 64.821L1.678 65.368L0.410999 81.82C0.402999 81.924 0.457 82.023 0.547 82.074ZM32.816 29.391L49.359 38.931L49.194 39.057L48.538 38.676L33.23 29.838L32.656 29.505L32.816 29.391ZM51.266 40.045C51.283 40.055 51.301 40.059 51.319 40.059C51.319 40.059 51.319 40.059 51.32 40.059C51.325 40.059 51.33 40.059 51.334 40.058C51.338 40.058 51.34 40.054 51.344 40.053C51.355 40.051 51.365 40.051 51.374 40.045L54.756 38.083L55.165 48.232L54.763 48.956C54.759 48.963 54.763 48.97 54.761 48.976C54.758 48.982 54.751 48.986 54.75 48.994L54.316 51.846C54.316 51.848 54.319 51.85 54.318 51.854C54.318 51.856 54.315 51.858 54.315 51.862V54.184L19.727 74.135V71.285C19.727 71.277 19.721 71.274 19.719 71.267C19.718 71.259 19.722 71.253 19.719 71.246L18.669 68.544C18.665 68.534 18.654 68.53 18.647 68.521C18.638 68.51 18.631 68.499 18.619 68.492C18.606 68.486 18.593 68.486 18.578 68.486C18.567 68.484 18.558 68.477 18.546 68.48L18.302 68.535L18.017 63.495L18.099 63.61C18.1 63.613 18.104 63.611 18.106 63.614C18.108 63.617 18.107 63.621 18.11 63.624L18.21 63.725C18.213 63.727 18.216 63.727 18.22 63.728C18.222 63.73 18.222 63.733 18.224 63.736L18.288 63.782C18.289 63.782 18.289 63.785 18.291 63.786L18.4 63.864L18.405 63.868H18.406L18.407 63.87C18.412 63.872 18.418 63.872 18.423 63.874C18.427 63.877 18.428 63.881 18.432 63.883L18.566 63.933C18.569 63.934 18.572 63.933 18.575 63.935C18.576 63.935 18.576 63.937 18.577 63.937L18.71 63.97C18.719 63.972 18.727 63.974 18.736 63.974H18.886C18.893 63.974 18.9 63.972 18.907 63.972L19.074 63.938L19.241 63.904C19.243 63.904 19.245 63.902 19.247 63.9C19.254 63.898 19.261 63.898 19.268 63.895L19.435 63.812C19.438 63.81 19.438 63.806 19.44 63.806C19.444 63.803 19.447 63.804 19.451 63.802L20.407 63.089H20.488C20.502 63.089 20.517 63.087 20.53 63.081L20.647 63.03C20.65 63.028 20.65 63.024 20.653 63.023C20.658 63.02 20.662 63.021 20.667 63.018L20.783 62.935C20.786 62.934 20.786 62.93 20.788 62.928C20.79 62.926 20.795 62.926 20.797 62.924L20.914 62.807C20.917 62.803 20.916 62.797 20.92 62.793C20.922 62.79 20.927 62.791 20.929 62.787L21.011 62.656L21.034 62.622L23.137 61.049C23.14 61.047 23.139 61.043 23.142 61.039C23.153 61.03 23.164 61.021 23.17 61.008L24.275 58.582L48.73 40.773C48.737 40.768 48.737 40.76 48.742 40.754C48.746 40.75 48.753 40.752 48.757 40.747L49.809 39.2L51.266 40.045ZM55.396 53.803L56.759 70.161L56.4 70.377L55.882 70.674L55.878 70.612L55.845 70.128C55.844 70.128 55.843 70.127 55.843 70.126C55.843 70.124 55.844 70.123 55.844 70.122L55.81 69.872L55.794 69.661C55.794 69.661 55.794 69.661 55.794 69.66L54.532 54.304L55.396 53.803ZM55.64 70.256L55.657 70.49L55.54 70.467L55.427 70.41L55.378 70.377L55.427 70.344L55.545 70.284L55.64 70.256ZM55.615 70.021L55.618 70.04L55.474 70.083C55.47 70.084 55.47 70.088 55.466 70.089C55.463 70.09 55.46 70.088 55.456 70.09L55.351 70.143L55.353 70.139L55.425 70.079L55.534 70.037L55.615 70.021ZM55.129 70.108C55.127 70.113 55.121 70.113 55.12 70.117L55.087 70.219C55.083 70.23 55.09 70.24 55.09 70.252C55.09 70.264 55.083 70.273 55.087 70.285L55.101 70.326L54.919 70.221L55.129 70.104C55.129 70.105 55.129 70.107 55.129 70.108ZM19.334 91.77L18.824 92.064L18.643 75.016L19.515 74.506L19.696 91.568L19.334 91.77ZM17.572 74.258L17.392 71.096L18.001 68.776H18.101L18.235 71.182C18.234 71.182 18.233 71.181 18.231 71.181L18.148 71.198C18.147 71.198 18.146 71.2 18.146 71.2C18.145 71.2 18.144 71.2 18.144 71.2L18.078 71.216C18.071 71.218 18.069 71.225 18.062 71.228C18.057 71.23 18.049 71.228 18.044 71.232L17.994 71.265C17.986 71.27 17.985 71.281 17.979 71.287C17.972 71.294 17.962 71.296 17.958 71.306L17.925 71.372C17.923 71.377 17.925 71.382 17.924 71.388C17.922 71.392 17.917 71.394 17.915 71.4L17.9 71.476L17.885 71.52C17.883 71.526 17.887 71.532 17.886 71.539C17.885 71.545 17.879 71.549 17.879 71.555V71.621C17.879 71.631 17.887 71.637 17.888 71.644C17.89 71.652 17.887 71.66 17.89 71.668L17.923 71.735C17.927 71.741 17.933 71.745 17.938 71.751C17.941 71.755 17.94 71.759 17.943 71.763L17.977 71.796L18.027 71.847C18.032 71.851 18.039 71.849 18.044 71.853C18.048 71.857 18.049 71.863 18.055 71.867L18.122 71.9C18.128 71.902 18.135 71.902 18.142 71.904C18.144 71.906 18.146 71.908 18.149 71.909L18.232 71.926C18.239 71.927 18.246 71.928 18.253 71.928H18.27L18.357 73.33L18.337 73.337L18.277 73.352C18.271 73.354 18.269 73.36 18.262 73.364C18.256 73.366 18.249 73.364 18.244 73.367L18.194 73.4C18.188 73.405 18.187 73.413 18.182 73.419C18.177 73.424 18.169 73.424 18.164 73.431L18.131 73.481C18.127 73.487 18.129 73.495 18.127 73.502C18.124 73.509 18.117 73.512 18.115 73.52L18.098 73.6L18.083 73.662C18.082 73.667 18.085 73.671 18.084 73.675C18.084 73.681 18.079 73.683 18.079 73.688V73.739C18.079 73.744 18.084 73.746 18.084 73.752C18.085 73.756 18.081 73.76 18.083 73.765L18.1 73.831C18.103 73.844 18.113 73.852 18.12 73.861C18.124 73.868 18.122 73.876 18.128 73.881L18.178 73.931C18.18 73.934 18.184 73.932 18.185 73.934C18.187 73.936 18.187 73.94 18.189 73.942L18.256 73.992C18.256 73.993 18.258 73.993 18.259 73.993C18.259 73.993 18.259 73.995 18.26 73.995L18.31 74.028C18.318 74.034 18.328 74.034 18.337 74.036C18.341 74.038 18.344 74.044 18.348 74.044L18.384 74.052L18.42 74.764L17.572 74.258ZM18.503 68.709L19.513 71.305V74.26L18.634 74.774L18.598 74.061H18.603C18.623 74.061 18.643 74.055 18.662 74.043L18.712 74.01L18.762 73.976C18.77 73.971 18.771 73.961 18.777 73.955C18.781 73.951 18.789 73.952 18.793 73.947L18.826 73.897C18.828 73.893 18.826 73.889 18.828 73.885C18.831 73.879 18.837 73.877 18.839 73.871L18.856 73.82C18.857 73.814 18.854 73.809 18.854 73.802C18.855 73.796 18.861 73.792 18.861 73.786V73.784L18.877 73.762C18.881 73.755 18.879 73.747 18.881 73.741C18.888 73.722 18.897 73.703 18.893 73.682L18.875 73.6C18.874 73.597 18.872 73.596 18.871 73.594C18.87 73.591 18.872 73.589 18.871 73.586L18.854 73.536C18.852 73.531 18.846 73.529 18.844 73.525C18.842 73.52 18.844 73.515 18.841 73.511L18.807 73.46C18.802 73.452 18.792 73.451 18.784 73.444C18.777 73.438 18.775 73.428 18.766 73.423L18.708 73.395L18.648 73.35C18.642 73.345 18.634 73.347 18.627 73.344C18.62 73.341 18.617 73.333 18.61 73.331L18.568 73.32L18.48 71.894L18.507 71.882C18.515 71.879 18.516 71.871 18.523 71.867C18.53 71.862 18.538 71.864 18.544 71.858L18.577 71.825L18.611 71.792C18.616 71.786 18.615 71.778 18.618 71.772C18.625 71.762 18.635 71.754 18.639 71.742L18.653 71.686L18.665 71.664C18.666 71.661 18.665 71.659 18.665 71.657C18.667 71.654 18.669 71.653 18.671 71.649L18.688 71.599C18.691 71.589 18.686 71.579 18.686 71.569C18.686 71.559 18.693 71.549 18.69 71.54L18.673 71.474C18.673 71.472 18.671 71.472 18.671 71.47C18.671 71.469 18.672 71.468 18.671 71.466L18.654 71.416C18.653 71.413 18.649 71.411 18.648 71.409C18.647 71.407 18.649 71.403 18.648 71.401L18.615 71.335C18.61 71.326 18.6 71.323 18.594 71.317C18.588 71.309 18.587 71.298 18.579 71.294L18.529 71.261C18.527 71.259 18.525 71.261 18.522 71.259C18.52 71.259 18.52 71.255 18.518 71.254L18.453 71.222L18.315 68.749L18.503 68.709ZM18.204 71.701L18.166 71.681L18.128 71.643L18.107 71.622L18.093 71.593V71.57L18.099 71.549L18.113 71.529L18.145 71.508L18.168 71.492H18.219H18.275L18.327 71.503L18.356 71.522L18.416 71.567L18.44 71.591L18.445 71.615V71.64L18.44 71.663L18.427 71.676L18.409 71.695L18.366 71.713H18.319H18.262L18.204 71.701ZM18.382 73.816L18.322 73.773L18.298 73.748L18.292 73.725V73.7L18.298 73.677L18.304 73.671L18.34 73.646L18.377 73.628H18.419H18.475L18.535 73.64L18.572 73.659L18.61 73.697L18.631 73.718L18.645 73.745V73.755V73.771L18.64 73.79L18.626 73.81L18.594 73.831L18.571 73.847H18.52H18.486H18.464L18.411 73.836L18.382 73.816ZM20.104 62.289L20.178 62.171C20.178 62.17 20.178 62.168 20.178 62.168C20.178 62.166 20.18 62.167 20.18 62.166L20.258 62.025L20.34 61.931L20.441 61.872L20.487 61.849L20.425 61.894C20.421 61.896 20.421 61.902 20.418 61.905C20.415 61.908 20.409 61.908 20.406 61.911L20.305 62.027C20.303 62.03 20.305 62.033 20.303 62.036C20.302 62.039 20.298 62.039 20.296 62.041L20.213 62.174C20.213 62.176 20.213 62.176 20.213 62.178C20.213 62.178 20.211 62.178 20.211 62.18L20.127 62.329C20.126 62.332 20.127 62.336 20.126 62.34C20.126 62.342 20.121 62.344 20.12 62.348L20.07 62.497C20.069 62.501 20.071 62.505 20.07 62.508C20.07 62.512 20.066 62.514 20.065 62.518L20.057 62.58L20.047 62.546L20.074 62.421L20.104 62.289ZM20.387 62.875H20.386L20.353 62.867L20.306 62.829L20.275 62.767L20.262 62.663L20.276 62.556L20.319 62.423L20.397 62.282L20.473 62.161L20.56 62.057L20.657 61.989L20.749 61.95L20.824 61.939L20.86 61.954L20.9 61.993L20.934 62.061L20.947 62.147L20.933 62.272L20.886 62.413L20.857 62.5L20.832 62.538C20.832 62.538 20.832 62.539 20.832 62.54H20.831L20.755 62.663L20.651 62.767L20.552 62.837L20.467 62.874H20.387V62.875ZM48.59 40.611L24.126 58.426C24.118 58.432 24.118 58.443 24.112 58.449C24.106 58.457 24.096 58.459 24.092 58.469L22.987 60.895L21.149 62.27L21.161 62.16C21.161 62.155 21.157 62.151 21.157 62.146C21.157 62.141 21.162 62.138 21.161 62.133L21.144 62.016C21.144 62.01 21.137 62.007 21.135 62C21.133 61.994 21.136 61.988 21.134 61.983L21.084 61.882C21.081 61.876 21.074 61.876 21.071 61.871C21.067 61.866 21.068 61.858 21.064 61.854L20.998 61.788C20.993 61.783 20.987 61.784 20.983 61.782C20.979 61.778 20.978 61.772 20.973 61.769L20.757 61.653L20.677 61.605C20.665 61.598 20.653 61.602 20.642 61.598C20.629 61.596 20.618 61.588 20.604 61.59L20.504 61.608C20.498 61.608 20.495 61.614 20.49 61.616C20.485 61.618 20.479 61.615 20.473 61.618L20.34 61.684C20.34 61.684 20.339 61.685 20.338 61.686C20.337 61.686 20.336 61.686 20.335 61.686L20.218 61.752C20.212 61.756 20.212 61.763 20.207 61.768C20.202 61.772 20.194 61.771 20.19 61.776L20.089 61.893C20.087 61.896 20.088 61.901 20.086 61.904C20.084 61.907 20.079 61.907 20.077 61.911L19.994 62.06L19.913 62.19C19.91 62.196 19.912 62.202 19.91 62.208C19.908 62.214 19.901 62.217 19.899 62.224L19.866 62.374L19.832 62.524C19.83 62.532 19.836 62.54 19.836 62.549C19.836 62.558 19.831 62.567 19.833 62.576L19.867 62.691C19.867 62.693 19.868 62.693 19.868 62.693C19.868 62.695 19.868 62.695 19.868 62.696L19.901 62.797C19.904 62.807 19.914 62.814 19.921 62.822C19.924 62.827 19.922 62.834 19.927 62.838L20.01 62.922C20.014 62.926 20.02 62.924 20.025 62.928C20.029 62.932 20.03 62.938 20.035 62.94L20.156 63.006L19.329 63.622L19.184 63.694L19.031 63.724L18.875 63.755H18.747L18.635 63.728L18.519 63.685L18.465 63.644H18.464C18.463 63.644 18.463 63.642 18.463 63.642L18.419 63.612L18.354 63.533L18.279 63.412L18.22 63.281L18.189 63.125L18.156 62.943C18.155 62.933 18.145 62.927 18.14 62.919C18.135 62.908 18.136 62.897 18.127 62.887C18.124 62.885 18.12 62.885 18.116 62.883C18.106 62.875 18.095 62.873 18.084 62.869C18.07 62.864 18.058 62.857 18.042 62.859C18.038 62.859 18.036 62.857 18.032 62.857C18.021 62.859 18.015 62.869 18.006 62.875C18.004 62.876 18.002 62.876 18 62.877L17.977 62.34L19.732 61.047L49.264 39.27C49.264 39.27 49.264 39.27 49.264 39.269C49.264 39.268 49.264 39.269 49.265 39.269L49.557 39.047L49.623 39.089L48.59 40.611ZM33.201 30.242L48.156 38.88L18.962 60.402L4.006 51.781L33.201 30.242ZM48.414 38.955C48.415 38.955 48.415 38.955 48.414 38.955L48.492 38.896L49.008 39.196L19.665 60.835L19.16 60.523L48.414 38.955ZM32.467 29.642L32.983 29.942L3.639 51.564L3.138 51.265L32.467 29.642ZM2.951 51.404L3.591 51.784L3.757 51.884H3.758V51.885L18.916 60.623L19.478 60.971L17.894 62.137L1.353 52.582L2.951 51.404ZM17.765 62.344L17.788 62.885L1.331 53.384C1.33 53.384 1.33 53.384 1.33 53.384L1.264 53.346L1.23 52.819L17.765 62.344ZM17.783 63.129L18.09 68.561H17.919C17.909 68.561 17.903 68.569 17.895 68.572C17.88 68.575 17.868 68.579 17.856 68.588C17.846 68.597 17.84 68.607 17.834 68.618C17.829 68.627 17.819 68.632 17.816 68.641L17.183 71.059C17.181 71.065 17.186 71.07 17.185 71.076C17.184 71.082 17.179 71.086 17.179 71.092L17.351 74.131L3.115 65.937L2.951 62.727C2.951 62.724 2.947 62.721 2.947 62.716C2.946 62.713 2.949 62.71 2.948 62.705L2.064 59.353C2.063 59.344 2.054 59.34 2.05 59.333C2.046 59.326 2.048 59.316 2.043 59.311L1.699 58.905L1.396 53.669L17.783 63.129ZM2.047 65.303L2.007 64.731C2.032 64.71 2.051 64.684 2.051 64.649C2.051 64.647 2.048 64.645 2.048 64.641C2.048 64.638 2.051 64.635 2.051 64.633V64.599V64.567C2.051 64.561 2.046 64.558 2.046 64.553C2.045 64.548 2.049 64.544 2.048 64.539L2.035 64.486V64.431V64.35V64.283C2.035 64.278 2.03 64.274 2.03 64.27C2.029 64.265 2.033 64.26 2.031 64.256L2.018 64.203V64.148V64.098C2.018 64.095 2.015 64.093 2.015 64.089C2.015 64.087 2.018 64.084 2.018 64.081C2.018 64.05 2.003 64.022 1.981 64.003L1.885 62.461V62.446V62.396V62.33V62.263C1.885 62.259 1.88 62.255 1.879 62.251C1.879 62.245 1.882 62.241 1.881 62.237L1.868 62.184V62.113V62.046C1.868 62.04 1.863 62.036 1.861 62.03C1.86 62.024 1.864 62.018 1.862 62.012L1.851 61.979V61.946V61.917L1.852 61.915C1.852 61.913 1.85 61.911 1.85 61.909C1.85 61.909 1.85 61.908 1.85 61.907L1.716 59.255L1.863 59.43L2.737 62.747L2.893 65.806L2.047 65.303ZM2.9 66.057L1.738 81.25C1.738 81.251 1.739 81.252 1.739 81.253C1.739 81.254 1.737 81.256 1.737 81.258V81.468L1.705 81.711L1.706 81.713C1.706 81.715 1.704 81.716 1.704 81.717L1.671 82.2C1.671 82.201 1.671 82.201 1.671 82.201L1.666 82.274L1.187 82.002L1.18 81.998L0.79 81.781L2.039 65.545L2.9 66.057ZM2.152 81.664L2.205 81.707L2.115 81.674C2.115 81.674 2.115 81.674 2.114 81.674C2.114 81.674 2.113 81.674 2.112 81.673L1.962 81.623C1.956 81.621 1.951 81.625 1.945 81.625C1.94 81.623 1.938 81.619 1.933 81.619L1.938 81.586L2.042 81.609L2.152 81.664ZM1.91 81.831L2.042 81.875L2.163 81.92L2.219 81.957L2.163 81.995L2.042 82.04L1.903 82.086L1.892 82.088L1.91 81.831ZM2.496 81.844C2.496 81.837 2.501 81.832 2.5 81.826L2.49 81.758L2.629 81.838L2.488 81.916L2.499 81.861C2.501 81.855 2.496 81.85 2.496 81.844ZM18.43 75.016L18.611 92.057L18.192 91.805C18.191 91.805 18.191 91.805 18.191 91.805C18.19 91.805 18.19 91.803 18.189 91.803L17.76 91.566L17.578 74.51L18.43 75.016ZM55.365 53.113L55.379 53.566L54.527 54.058V51.866L54.957 49.043L55.181 48.641L55.365 53.113ZM54.801 37.81L51.405 39.781L48.4 16.881L55.522 12.77L56.496 36.825L54.801 37.81ZM35.361 1.006L55.408 12.589L48.285 16.702L28.222 5.135L35.361 1.006ZM48.186 16.891L51.186 39.752L49.826 38.962L49.609 38.828C49.608 38.828 49.608 38.828 49.607 38.828C49.606 38.828 49.606 38.827 49.606 38.827L32.864 29.172L31.142 28.181L28.142 5.336L48.186 16.891Z" fill="white"/>
</svg>
